<svg xmlns="http://www.w3.org/2000/svg" width="176" height="46" viewBox="0 0 176 46">
    <g fill="none" fill-rule="evenodd">
        <path fill="#FFF" d="M37.266 1.741a9.515 9.515 0 0 0 6.993 6.993A15.932 15.932 0 0 1 46 16v14c0 8.837-7.163 16-16 16H16C7.163 46 0 38.837 0 30V16C0 7.163 7.163 0 16 0h14c2.616 0 5.086.628 7.266 1.741zM23 38c8.284 0 15-6.716 15-15 0-8.284-6.716-15-15-15-8.284 0-15 6.716-15 15h4c0-6.075 4.925-11 11-11s11 4.925 11 11-4.925 11-11 11v4z"/>
        <path fill="#FFF" fill-rule="nonzero" d="M64.05 4.203l4.72 11.294 4.737-11.294h1.441V17h-1.08v-5.572l.087-5.713L69.191 17h-.835L63.61 5.759l.088 5.634V17h-1.08V4.203h1.432zM84.257 17c-.106-.299-.173-.741-.202-1.327-.37.48-.84.85-1.411 1.112a4.32 4.32 0 0 1-1.815.39c-.914 0-1.654-.254-2.22-.764-.565-.51-.847-1.154-.847-1.933 0-.926.385-1.659 1.155-2.198.771-.539 1.845-.808 3.222-.808h1.907V10.39c0-.68-.21-1.215-.629-1.604-.418-.39-1.03-.585-1.832-.585-.732 0-1.339.188-1.82.563-.48.375-.72.826-.72 1.353l-1.055-.009c0-.755.352-1.41 1.055-1.964s1.567-.83 2.593-.83c1.06 0 1.897.265 2.509.795.612.53.927 1.27.945 2.22v4.5c0 .919.096 1.607.29 2.065V17h-1.125zm-3.305-.756c.703 0 1.332-.17 1.885-.51a3 3 0 0 0 1.209-1.362V12.28h-1.881c-1.049.012-1.87.204-2.46.576-.593.372-.889.883-.889 1.534 0 .533.198.975.594 1.327.395.351.91.527 1.542.527zm8.43.756h-1.055V3.5h1.055V17zm4.8-11.944V7.49h1.968v.862h-1.968v6.336c0 .528.095.92.285 1.178.19.258.509.387.954.387.176 0 .46-.03.852-.088l.044.861c-.275.1-.65.15-1.125.15-.72 0-1.245-.21-1.573-.629-.328-.419-.492-1.035-.492-1.85V8.352h-1.75V7.49h1.75V5.056h1.055zm8.14 12.12c-.81 0-1.54-.2-2.194-.598a4.073 4.073 0 0 1-1.525-1.665c-.363-.712-.544-1.51-.544-2.395v-.378c0-.914.177-1.738.531-2.47.355-.733.848-1.308 1.481-1.727a3.653 3.653 0 0 1 2.057-.629c1.154 0 2.07.394 2.746 1.183.677.788 1.016 1.864 1.016 3.23v.588h-6.786v.203c0 1.078.31 1.976.928 2.693.618.718 1.396 1.077 2.333 1.077.563 0 1.06-.102 1.49-.308.43-.205.822-.533 1.173-.984l.66.501c-.774 1.12-1.896 1.679-3.367 1.679zm-.194-8.965a2.63 2.63 0 0 0-2 .87c-.542.58-.871 1.36-.988 2.338h5.704v-.114c-.03-.914-.29-1.659-.783-2.233-.492-.574-1.136-.861-1.933-.861zm7.076-.72l.035 1.546c.352-.574.791-1.005 1.319-1.292a3.616 3.616 0 0 1 1.757-.43c1.5 0 2.452.615 2.857 1.845a3.57 3.57 0 0 1 1.362-1.367 3.774 3.774 0 0 1 1.88-.479c2.04 0 3.08 1.114 3.121 3.34V17h-1.055v-6.267c-.006-.85-.189-1.48-.549-1.89-.36-.41-.948-.614-1.762-.614-.756.011-1.395.256-1.916.733a2.593 2.593 0 0 0-.87 1.745V17h-1.055v-6.346c-.006-.814-.198-1.422-.576-1.823-.378-.402-.96-.602-1.744-.602-.662 0-1.23.188-1.705.566-.475.378-.827.94-1.055 1.684V17h-1.055V7.49h1.011zm27.143 5.923h-5.81L129.219 17h-1.134l4.843-12.797h1.028L138.799 17h-1.125l-1.327-3.586zm-5.476-.923h5.133l-2.567-6.97-2.566 6.97zM141.498 17V8.352h-1.573V7.49h1.573V6.34c0-.973.247-1.72.743-2.241.495-.522 1.185-.783 2.07-.783.398 0 .77.05 1.116.15l-.08.879a4.102 4.102 0 0 0-.958-.106c-.58 0-1.03.18-1.353.54-.322.361-.483.872-.483 1.535V7.49h2.267v.862h-2.267V17h-1.055zm9.906-8.613a3.928 3.928 0 0 0-.712-.062c-.656 0-1.211.183-1.665.55-.454.366-.778.897-.972 1.595V17h-1.045V7.49h1.028l.017 1.512c.557-1.125 1.45-1.688 2.681-1.688.293 0 .525.039.694.115l-.026.958zM154.552 17h-1.055V7.49h1.055V17zm-1.24-12.26c0-.2.065-.368.194-.506s.304-.207.527-.207c.223 0 .4.07.532.207a.703.703 0 0 1 .197.505c0 .2-.065.366-.197.501s-.31.202-.532.202c-.223 0-.398-.067-.527-.202a.697.697 0 0 1-.194-.5zm7.92 11.548c.733 0 1.346-.206 1.841-.62a2.18 2.18 0 0 0 .805-1.604h1.01c-.029.58-.21 1.11-.544 1.587a3.414 3.414 0 0 1-1.332 1.12 4.013 4.013 0 0 1-1.78.405c-1.248 0-2.237-.434-2.966-1.301-.73-.867-1.094-2.033-1.094-3.498v-.316c0-.938.164-1.767.492-2.488.328-.72.798-1.277 1.41-1.67.613-.392 1.33-.589 2.15-.589 1.042 0 1.902.311 2.579.932.677.621 1.039 1.439 1.085 2.452h-1.01c-.047-.744-.315-1.344-.805-1.802-.489-.457-1.105-.685-1.85-.685-.949 0-1.686.343-2.21 1.028-.524.686-.787 1.647-.787 2.883v.308c0 1.213.263 2.159.787 2.839.524.68 1.264 1.02 2.22 1.02zm12.069.712c-.106-.299-.173-.741-.203-1.327-.369.48-.839.85-1.41 1.112a4.32 4.32 0 0 1-1.815.39c-.914 0-1.654-.254-2.22-.764-.565-.51-.848-1.154-.848-1.933 0-.926.386-1.659 1.156-2.198.77-.539 1.844-.808 3.221-.808h1.908V10.39c0-.68-.21-1.215-.629-1.604-.419-.39-1.03-.585-1.832-.585-.733 0-1.34.188-1.82.563-.48.375-.72.826-.72 1.353l-1.055-.009c0-.755.351-1.41 1.055-1.964.703-.554 1.567-.83 2.592-.83 1.06 0 1.897.265 2.51.795.612.53.927 1.27.944 2.22v4.5c0 .919.097 1.607.29 2.065V17h-1.124zm-3.305-.756c.703 0 1.331-.17 1.885-.51a3 3 0 0 0 1.209-1.362V12.28h-1.881c-1.05.012-1.87.204-2.461.576-.592.372-.888.883-.888 1.534 0 .533.198.975.593 1.327.396.351.91.527 1.543.527zM70.765 36.972c0-.688-.242-1.218-.725-1.59-.484-.373-1.356-.749-2.616-1.128-1.26-.38-2.263-.802-3.008-1.268-1.425-.895-2.138-2.062-2.138-3.502 0-1.26.514-2.298 1.542-3.115 1.027-.816 2.361-1.224 4.001-1.224 1.089 0 2.06.2 2.911.601.853.401 1.522.972 2.01 1.713.486.742.73 1.563.73 2.466h-2.707c0-.817-.256-1.456-.768-1.918-.512-.462-1.245-.693-2.197-.693-.888 0-1.578.19-2.068.57-.49.38-.736.91-.736 1.59 0 .573.265 1.05.795 1.434.53.383 1.404.755 2.621 1.117 1.218.362 2.195.773 2.933 1.235.737.462 1.278.992 1.622 1.59.344.598.515 1.298.515 2.1 0 1.304-.5 2.34-1.498 3.11-1 .77-2.354 1.155-4.066 1.155-1.132 0-2.172-.21-3.12-.629-.95-.419-1.687-.997-2.214-1.734-.526-.738-.79-1.597-.79-2.579h2.719c0 .888.293 1.576.88 2.063.588.487 1.43.73 2.525.73.945 0 1.656-.191 2.132-.574.477-.383.715-.89.715-1.52zm10.346 4.243c-1.655 0-2.996-.521-4.023-1.563-1.028-1.042-1.542-2.43-1.542-4.163v-.322c0-1.16.224-2.197.671-3.11.448-.913 1.076-1.624 1.886-2.132a4.984 4.984 0 0 1 2.707-.763c1.582 0 2.805.505 3.668 1.515.863 1.01 1.295 2.438 1.295 4.286v1.053h-7.595c.079.96.4 1.718.961 2.277.563.559 1.27.838 2.122.838 1.196 0 2.17-.484 2.922-1.45l1.407 1.342a4.7 4.7 0 0 1-1.864 1.617c-.777.383-1.649.575-2.615.575zm-.312-9.958c-.716 0-1.294.25-1.735.752-.44.501-.721 1.2-.843 2.095h4.974v-.194c-.058-.874-.29-1.534-.699-1.982-.408-.447-.974-.671-1.697-.671zm12.494 9.958c-1.654 0-2.995-.521-4.023-1.563-1.027-1.042-1.541-2.43-1.541-4.163v-.322c0-1.16.224-2.197.671-3.11.448-.913 1.076-1.624 1.886-2.132a4.984 4.984 0 0 1 2.707-.763c1.582 0 2.805.505 3.668 1.515.863 1.01 1.294 2.438 1.294 4.286v1.053h-7.594c.079.96.399 1.718.961 2.277.562.559 1.27.838 2.122.838 1.196 0 2.17-.484 2.922-1.45l1.407 1.342a4.7 4.7 0 0 1-1.864 1.617c-.777.383-1.649.575-2.616.575zm-.311-9.958c-.716 0-1.295.25-1.735.752-.44.501-.722 1.2-.843 2.095h4.973v-.194c-.057-.874-.29-1.534-.698-1.982-.408-.447-.974-.671-1.697-.671zm11.151 4.759l-1.16 1.192V41h-2.61V24.5h2.61v9.518l.817-1.02 3.212-3.621h3.136l-4.318 4.845L110.6 41h-3.018l-3.449-4.984zm12.989 5.199c-1.654 0-2.995-.521-4.023-1.563-1.028-1.042-1.542-2.43-1.542-4.163v-.322c0-1.16.224-2.197.672-3.11.447-.913 1.076-1.624 1.885-2.132a4.984 4.984 0 0 1 2.707-.763c1.583 0 2.806.505 3.669 1.515.862 1.01 1.294 2.438 1.294 4.286v1.053h-7.595c.079.96.4 1.718.962 2.277.562.559 1.269.838 2.121.838 1.196 0 2.17-.484 2.922-1.45l1.407 1.342a4.7 4.7 0 0 1-1.863 1.617c-.777.383-1.65.575-2.616.575zm-.312-9.958c-.716 0-1.294.25-1.735.752-.44.501-.721 1.2-.843 2.095h4.974v-.194c-.057-.874-.29-1.534-.698-1.982-.409-.447-.974-.671-1.698-.671zm13.461.505a6.46 6.46 0 0 0-1.063-.086c-1.196 0-2.002.458-2.417 1.375V41h-2.61V29.377h2.492l.064 1.3c.63-1.01 1.504-1.515 2.621-1.515.373 0 .68.05.924.15l-.01 2.45z"/>
        <path fill="#EB2F11" d="M17.536 32.707l-4.243-4.243-.707 4.95z" opacity=".6"/>
    </g>
</svg>
